HIERARCHY
ROOT Hips
{
	OFFSET 0.00000 0.00000 0.00000
	CHANNELS 6 Xposition Yposition Zposition Zrotation Yrotation Xrotation 
	JOINT RightUpLegDummy
	{
		OFFSET 0 0 0
		CHANNELS 3 Zrotation Yrotation Xrotation
		JOINT RightUpLeg
		{
			OFFSET -3.52197 -3.41223 0.04002
			CHANNELS 3 Zrotation Yrotation Xrotation
			JOINT RightLeg
			{
				OFFSET 0.00006 -17.42390 1.60435
				CHANNELS 3 Zrotation Yrotation Xrotation
				JOINT RightFoot
				{
					OFFSET 0.06153 -16.50078 -1.63901
					CHANNELS 3 Zrotation Yrotation Xrotation
					JOINT RightToes
					{
						OFFSET 0.00298 -1.73825 3.34613
						CHANNELS 3 Zrotation Yrotation Xrotation
						End Site
						{
							OFFSET 0.00480 -0.05416 3.85043
						}
					}
				}
			}
		}
	}
	JOINT SpineDummy
	{
		OFFSET 0 0 0
		CHANNELS 3 Zrotation Yrotation Xrotation
		JOINT Spine
		{
			OFFSET 0.00000 4.68130 0.00000
			CHANNELS 3 Zrotation Yrotation Xrotation
			JOINT Spine1
			{
				OFFSET -0.00000 10.10138 0.05002
				CHANNELS 3 Zrotation Yrotation Xrotation
				JOINT HEadDummy
				{
					OFFSET 0 0 0
					CHANNELS 3 Zrotation Yrotation Xrotation
					JOINT Head
					{
						OFFSET -0.00000 3.43865 0.00438
						CHANNELS 3 Zrotation Yrotation Xrotation
						End Site
						{
							OFFSET -0.11417 5.02924 0.98962
						}
					}
				}
				JOINT LeftShoulder1Dummy
				{
					OFFSET 0 0 0
					CHANNELS 3 Zrotation Yrotation Xrotation
					JOINT LeftShoulder1
					{
						OFFSET 3.53937 -0.14262 -0.08662
						CHANNELS 3 Zrotation Yrotation Xrotation
						JOINT LeftArm
						{
							OFFSET 4.04833 -0.00133 0.12681
							CHANNELS 3 Zrotation Yrotation Xrotation
							JOINT LeftForeArm
							{
								OFFSET 10.33880 -0.01036 -0.55515
								CHANNELS 3 Zrotation Yrotation Xrotation
								JOINT LeftHand
								{
									OFFSET 8.69677 0.07543 0.40060
									CHANNELS 3 Zrotation Yrotation Xrotation
									End Site
									{
										OFFSET 5.28377 -0.21905 0.59205
									}
								}
							}
						}
					}
				}
				JOINT RightShoulderDummy
				{
					OFFSET 0 0 0
					CHANNELS 3 Zrotation Yrotation Xrotation
					JOINT RightShoulder
					{
						OFFSET -3.53937 -0.14262 -0.08660
						CHANNELS 3 Zrotation Yrotation Xrotation
						JOINT RightArm
						{
							OFFSET -4.04833 -0.00133 0.12683
							CHANNELS 3 Zrotation Yrotation Xrotation
							JOINT RightForeArm
							{
								OFFSET -10.37987 -0.01039 -0.55511
								CHANNELS 3 Zrotation Yrotation Xrotation
								JOINT RightHand
								{
									OFFSET -8.67398 0.07538 0.40058
									CHANNELS 3 Zrotation Yrotation Xrotation
									End Site
									{
										OFFSET -5.24810 -0.21916 0.59204
									}
								}
							}
						}
					}
				}
			}
		}
	}
	JOINT LeftUpLegDummy
	{
		OFFSET 0 0 0
		CHANNELS 3 Zrotation Yrotation Xrotation
		JOINT LeftUpLeg
		{
			OFFSET 3.52197 -3.41223 0.04002
			CHANNELS 3 Zrotation Yrotation Xrotation
			JOINT LeftLeg
			{
				OFFSET -0.00012 -17.42399 1.60337
				CHANNELS 3 Zrotation Yrotation Xrotation
				JOINT LeftFoot
				{
					OFFSET -0.09972 -16.50070 -1.63802
					CHANNELS 3 Zrotation Yrotation Xrotation
					JOINT LeftToes
					{
						OFFSET -0.01575 -1.73823 3.34611
						CHANNELS 3 Zrotation Yrotation Xrotation
						End Site
						{
							OFFSET 0.03150 -0.01868 3.85031
						}
					}
				}
			}
		}
	}
}
MOTION
Frames: 17
Frame Time: 0.033333
33.1827 39.9426 66.6518 -178.6380 2.1281 179.3260 0.0000 0.0000 0.0000 0.4087 -1.9663 1.4873 -0.6846 0.7406 3.1183 0.0964 -0.0277 -4.0848 0.0000 -0.0000 0.0000 0.0000 0.0000 0.0000 0.7717 0.2273 -0.7717 2.3203 -0.2900 1.8683 -0.0000 0.0000 -0.0000 0.7369 5.0367 -7.4022 -0.0000 0.0000 -0.0000 -33.6296 -2.5927 2.4176 -44.7639 -14.0307 -18.0311 -9.8141 4.9154 55.1916 14.6853 -3.2936 -1.0765 -0.0000 0.0000 -0.0000 35.3438 5.2543 3.6252 41.0565 3.0681 -13.9202 11.8249 -0.2601 25.9628 -12.7008 1.7617 -0.7686 0.0000 0.0000 0.0000 3.4270 2.5757 1.9005 1.0937 3.4852 4.0437 1.9953 -0.0791 -5.4395 0.0000 0.0000 -0.0000
33.1899 39.9426 66.6617 -178.6060 2.0329 179.3640 0.0000 0.0000 0.0000 0.4743 -1.9178 1.4460 -0.7231 0.5940 3.1068 0.0503 -0.0248 -4.0523 0.0000 -0.0000 0.0000 0.0000 0.0000 0.0000 0.8543 0.1035 -0.8985 2.2364 -0.4098 2.0257 -0.0000 0.0000 -0.0000 0.7885 5.2313 -7.3695 -0.0000 0.0000 -0.0000 -33.5782 -2.5099 2.3817 -44.7887 -14.0944 -17.9439 -9.8582 4.9210 55.0075 14.7112 -3.2993 -1.0755 -0.0000 0.0000 -0.0000 35.3117 5.2663 3.6252 41.1461 3.2644 -13.5948 11.9091 0.0657 25.6136 -12.2009 1.5074 -0.7127 0.0000 0.0000 0.0000 3.5261 2.6787 1.7938 0.9784 3.2956 4.1171 2.0482 -0.0825 -5.4571 0.0000 0.0000 -0.0000
33.2079 39.9426 66.6870 -178.5420 1.7460 179.4120 0.0000 0.0000 0.0000 0.6081 -1.8242 1.4115 -0.8076 0.2104 3.0438 0.0292 -0.0236 -3.9897 0.0000 -0.0000 0.0000 0.0000 0.0000 0.0000 0.8935 -0.1040 -0.9847 2.2099 -0.6243 2.1614 -0.0000 0.0000 -0.0000 0.8483 5.4882 -7.3090 -0.0000 0.0000 -0.0000 -33.5019 -2.4298 2.3455 -44.7893 -14.2873 -17.7074 -9.9677 4.9271 54.7825 14.6291 -3.3286 -1.0734 -0.0000 0.0000 -0.0000 35.2338 5.2709 3.6205 41.3038 3.7358 -13.2980 11.9630 0.2993 25.3585 -11.5366 1.3221 -0.6556 0.0000 0.0000 0.0000 3.6567 2.7551 1.5883 0.8934 2.9359 4.2479 2.0666 -0.0837 -5.4556 0.0000 0.0000 -0.0000
33.2275 39.9426 66.7091 -178.5060 1.5316 179.3710 0.0000 0.0000 0.0000 0.7048 -1.7607 1.4746 -0.8751 -0.0707 2.9773 0.0281 -0.0237 -3.9492 0.0000 -0.0000 0.0000 0.0000 0.0000 0.0000 0.8153 -0.1877 -0.8840 2.3250 -0.7287 2.1538 -0.0000 0.0000 -0.0000 0.8480 5.6051 -7.2624 -0.0000 0.0000 -0.0000 -33.5018 -2.4332 2.3468 -44.7137 -14.5837 -17.3570 -10.1493 4.9326 54.5499 14.5167 -3.3496 -1.0673 -0.0000 0.0000 -0.0000 35.1424 5.2576 3.6069 41.4232 4.2090 -13.1583 11.9759 0.3548 25.3516 -11.2986 1.3646 -0.6458 0.0000 0.0000 0.0000 3.6973 2.7156 1.5493 0.9482 2.7470 4.2695 1.9892 -0.0787 -5.4104 0.0000 0.0000 -0.0000
33.2403 39.9426 66.7212 -178.5100 1.4384 179.2900 0.0000 0.0000 0.0000 0.7283 -1.7524 1.5671 -0.8997 -0.1725 2.9464 0.0147 -0.0228 -3.9406 0.0000 -0.0000 0.0000 0.0000 0.0000 0.0000 0.6640 -0.1546 -0.7090 2.5483 -0.7275 2.0401 -0.0000 0.0000 -0.0000 0.7384 5.5672 -7.2358 -0.0000 0.0000 -0.0000 -33.6533 -2.4994 2.3821 -44.5518 -14.8705 -16.9653 -10.3931 4.9429 54.1441 14.4655 -3.4133 -1.0709 -0.0000 0.0000 -0.0000 35.0278 5.2339 3.5869 41.5001 4.4776 -12.9533 12.0319 0.5175 25.3023 -11.3877 1.4963 -0.6629 0.0000 0.0000 0.0000 3.6679 2.6350 1.6380 1.0425 2.7175 4.1922 1.8966 -0.0727 -5.3487 0.0000 0.0000 -0.0000
33.2484 39.9426 66.7329 -178.5200 1.2854 179.2840 0.0000 0.0000 0.0000 0.7294 -1.7622 1.5751 -0.9066 -0.3102 2.9338 0.0078 -0.0224 -3.9353 0.0000 -0.0000 0.0000 0.0000 0.0000 0.0000 0.5097 -0.1472 -0.6035 2.7967 -0.7569 1.8673 -0.0000 0.0000 -0.0000 0.5336 5.4551 -7.2004 -0.0000 0.0000 -0.0000 -33.9193 -2.5811 2.4308 -44.3491 -15.0588 -16.5380 -10.6753 4.9577 53.5806 14.4558 -3.5507 -1.0863 -0.0000 0.0000 -0.0000 34.8657 5.2077 3.5618 41.6143 4.5438 -12.5959 12.1398 0.9428 25.0247 -11.3582 1.5824 -0.6689 0.0000 0.0000 0.0000 3.6567 2.6013 1.6121 1.0577 2.5969 4.1629 1.8796 -0.0716 -5.3055 0.0000 0.0000 -0.0000
33.2591 39.9426 66.7476 -178.5160 1.1156 179.3080 0.0000 0.0000 0.0000 0.7502 -1.7574 1.5478 -0.9155 -0.4788 2.9217 0.0228 -0.0234 -3.9243 0.0000 -0.0000 0.0000 0.0000 0.0000 0.0000 0.3993 -0.1543 -0.5428 2.9845 -0.7913 1.7004 -0.0000 0.0000 -0.0000 0.3145 5.3125 -7.1609 -0.0000 0.0000 -0.0000 -34.1572 -2.6555 2.4754 -44.2001 -15.2194 -16.0484 -10.9616 4.9705 53.0708 14.4759 -3.6544 -1.1001 -0.0000 0.0000 -0.0000 34.7037 5.1842 3.5379 41.7724 4.5349 -12.2607 12.2245 1.4736 24.6473 -11.1284 1.6199 -0.6583 0.0000 0.0000 0.0000 3.6933 2.6250 1.5128 1.0103 2.4105 4.2037 1.9155 -0.0740 -5.2883 0.0000 0.0000 -0.0000
33.2736 39.9426 66.7586 -178.5050 1.1137 179.2440 0.0000 0.0000 0.0000 0.7880 -1.7395 1.6026 -0.9233 -0.4980 2.9193 0.0267 -0.0237 -3.9210 0.0000 -0.0000 0.0000 0.0000 0.0000 0.0000 0.3524 -0.0771 -0.4610 3.0725 -0.7249 1.6414 -0.0000 0.0000 -0.0000 0.1613 5.1277 -7.1752 -0.0000 0.0000 -0.0000 -34.2412 -2.7136 2.5039 -44.1916 -15.5040 -15.5922 -11.1878 4.9796 52.6948 14.5276 -3.6538 -1.1041 -0.0000 0.0000 -0.0000 34.6344 5.1712 3.5265 41.8787 4.5930 -12.1005 12.2490 1.8225 24.3975 -10.9982 1.6675 -0.6546 0.0000 0.0000 0.0000 3.7509 2.6778 1.5545 0.9717 2.3542 4.2276 1.9313 -0.0750 -5.2901 0.0000 0.0000 -0.0000
33.2853 39.9426 66.7692 -178.4770 1.1269 179.1500 0.0000 0.0000 0.0000 0.8410 -1.7178 1.6894 -0.9325 -0.5090 2.9174 -0.0009 -0.0219 -3.9150 0.0000 -0.0000 0.0000 0.0000 0.0000 0.0000 0.3704 -0.0079 -0.4141 3.0787 -0.6572 1.6977 -0.0000 0.0000 -0.0000 0.0964 5.0080 -7.2886 -0.0000 0.0000 -0.0000 -34.1585 -2.7438 2.5109 -44.3360 -15.9216 -15.3389 -11.2848 4.9888 52.3635 14.5318 -3.6772 -1.1072 -0.0000 0.0000 -0.0000 34.6773 5.1735 3.5312 41.8874 4.7870 -12.0543 12.2535 1.8682 24.3622 -11.0894 1.7423 -0.6668 0.0000 0.0000 0.0000 3.8204 2.7369 1.6251 0.9415 2.3014 4.2683 1.9291 -0.0748 -5.3114 0.0000 0.0000 -0.0000
33.2884 39.9426 66.7880 -178.4230 0.8549 179.1690 0.0000 0.0000 0.0000 0.9058 -1.7008 1.6793 -0.9475 -0.7971 2.8858 -0.0202 -0.0208 -3.8866 0.0000 -0.0000 0.0000 0.0000 0.0000 0.0000 0.4494 -0.1205 -0.4581 3.0174 -0.7665 1.7297 -0.0000 0.0000 -0.0000 0.0925 5.1239 -7.4429 -0.0000 0.0000 -0.0000 -33.9783 -2.7418 2.4986 -44.5779 -16.2973 -15.2745 -11.2723 4.9985 52.0613 14.4435 -3.8275 -1.1178 -0.0000 0.0000 -0.0000 34.7608 5.1828 3.5424 41.8734 5.0442 -12.0065 12.2737 1.7326 24.4913 -11.2354 1.7852 -0.6796 0.0000 0.0000 0.0000 3.8962 2.7731 1.4513 0.8939 1.9962 4.4223 1.9549 -0.0765 -5.3462 0.0000 0.0000 -0.0000
33.2847 39.9426 66.8066 -178.3750 0.4533 179.2550 0.0000 0.0000 0.0000 0.9443 -1.7047 1.6183 -0.9526 -1.1897 2.8328 0.0024 -0.0223 -3.8550 0.0000 -0.0000 0.0000 0.0000 0.0000 0.0000 0.5828 -0.3456 -0.5187 2.8683 -0.9749 1.6646 -0.0000 0.0000 -0.0000 0.1814 5.0403 -7.4768 -0.0000 0.0000 -0.0000 -33.7606 -2.7078 2.4714 -44.8594 -16.4909 -15.1678 -11.2795 5.0045 51.8655 14.4100 -3.9811 -1.1332 -0.0000 0.0000 -0.0000 34.8352 5.1897 3.5518 41.8997 5.2424 -11.9633 12.2939 1.5782 24.6866 -11.3362 1.7162 -0.6797 0.0000 0.0000 0.0000 3.9371 2.7632 1.1677 0.8619 1.6120 4.6007 1.9928 -0.0789 -5.3706 0.0000 0.0000 -0.0000
33.2821 39.9426 66.8085 -178.3740 0.3534 179.2460 0.0000 0.0000 0.0000 0.9285 -1.7304 1.6467 -0.9378 -1.2596 2.8060 0.0319 -0.0242 -3.8554 0.0000 -0.0000 0.0000 0.0000 0.0000 0.0000 0.7324 -0.4604 -0.5329 2.6598 -1.0588 1.6226 -0.0000 0.0000 -0.0000 0.2901 5.0942 -7.4480 -0.0000 0.0000 -0.0000 -33.5576 -2.6467 2.4345 -45.1315 -16.5398 -14.8938 -11.3915 5.0060 51.7707 14.5838 -4.0042 -1.1501 -0.0000 0.0000 -0.0000 34.9184 5.1983 3.5627 41.9193 5.3642 -11.9825 12.2918 1.4269 24.8547 -11.4212 1.5593 -0.6702 0.0000 0.0000 0.0000 3.9208 2.7331 1.1452 0.8798 1.5373 4.6210 1.9865 -0.0785 -5.3705 0.0000 0.0000 -0.0000
33.2854 39.9426 66.7970 -178.4080 0.5609 179.1700 0.0000 0.0000 0.0000 0.8947 -1.7462 1.7192 -0.9247 -1.0369 2.8295 0.0205 -0.0234 -3.8837 0.0000 -0.0000 0.0000 0.0000 0.0000 0.0000 0.8264 -0.4363 -0.5940 2.5208 -1.0140 1.7104 -0.0000 0.0000 -0.0000 0.3544 5.1945 -7.4290 -0.0000 0.0000 -0.0000 -33.4836 -2.5928 2.4087 -45.3030 -16.5302 -14.6177 -11.5332 5.0054 51.7294 14.8522 -3.9500 -1.1656 -0.0000 0.0000 -0.0000 34.9954 5.2138 3.5758 41.8823 5.4462 -12.0368 12.2775 1.2633 24.9401 -11.4306 1.4867 -0.6652 0.0000 0.0000 0.0000 3.8899 2.7300 1.3422 0.9056 1.7351 4.5055 1.9406 -0.0756 -5.3589 0.0000 0.0000 -0.0000
33.2920 39.9426 66.7888 -178.4290 0.7177 179.1810 0.0000 0.0000 0.0000 0.8925 -1.7286 1.6838 -0.9338 -0.9036 2.8751 -0.0189 -0.0208 -3.9069 0.0000 -0.0000 0.0000 0.0000 0.0000 0.0000 0.8347 -0.4182 -0.7863 2.5493 -1.0063 1.8466 -0.0000 0.0000 -0.0000 0.3447 5.2918 -7.4801 -0.0000 0.0000 -0.0000 -33.6465 -2.5951 2.4196 -45.2864 -16.4605 -14.5315 -11.5914 5.0035 51.7675 14.9740 -3.8737 -1.1662 -0.0000 0.0000 -0.0000 34.9881 5.2267 3.5805 41.8322 5.4363 -12.0429 12.2732 1.1886 24.9311 -11.2957 1.6151 -0.6677 0.0000 0.0000 0.0000 3.8904 2.7565 1.4086 0.8908 1.8638 4.4317 1.9103 -0.0736 -5.3539 0.0000 0.0000 -0.0000
33.2973 39.9426 66.7878 -178.4290 0.7187 179.2710 0.0000 0.0000 0.0000 0.9108 -1.7012 1.5750 -0.9478 -0.9367 2.8983 -0.0398 -0.0194 -3.9105 0.0000 -0.0000 0.0000 0.0000 0.0000 0.0000 0.8049 -0.4510 -0.9911 2.6732 -1.0667 1.9089 -0.0000 0.0000 -0.0000 0.3084 5.3640 -7.6027 -0.0000 0.0000 -0.0000 -33.9489 -2.6443 2.4579 -45.1497 -16.3177 -14.5788 -11.5799 5.0007 51.8612 14.8893 -3.7214 -1.1409 -0.0000 0.0000 -0.0000 34.8996 5.2278 3.5819 41.8021 5.2860 -11.9899 12.2825 1.2741 24.8540 -11.1691 1.7834 -0.6706 0.0000 0.0000 0.0000 3.9037 2.7690 1.3061 0.8735 1.8603 4.4425 1.9066 -0.0734 -5.3548 0.0000 0.0000 -0.0000
33.3009 39.9426 66.7888 -178.4240 0.6963 179.3240 0.0000 0.0000 0.0000 0.9199 -1.6949 1.5224 -0.9418 -0.9667 2.8885 -0.0306 -0.0200 -3.9021 0.0000 -0.0000 0.0000 0.0000 0.0000 0.0000 0.7844 -0.4932 -1.0626 2.7560 -1.1263 1.9070 -0.0000 0.0000 -0.0000 0.3028 5.4289 -7.7743 -0.0000 0.0000 -0.0000 -34.1097 -2.6682 2.4774 -45.1025 -16.1697 -14.6040 -11.5765 4.9998 51.8933 14.7285 -3.5476 -1.1072 -0.0000 0.0000 -0.0000 34.8634 5.2230 3.5821 41.7311 5.1336 -11.9796 12.2873 1.3278 24.8132 -11.2414 1.7349 -0.6660 0.0000 0.0000 0.0000 3.8946 2.7364 1.2320 0.9131 1.8724 4.4629 1.8903 -0.0723 -5.3585 0.0000 0.0000 -0.0000
33.3059 39.9413 66.7980 -178.3900 0.5698 179.3870 0.0000 0.0000 0.0000 0.9554 -1.6879 1.4619 -0.9279 -1.0958 2.8627 -0.0178 -0.0209 -3.8790 0.0000 -0.0000 0.0000 0.0000 0.0000 0.0000 0.7643 -0.5952 -1.0702 2.7861 -1.2360 1.8906 -0.0000 0.0000 -0.0000 0.3356 5.4948 -7.9717 -0.0000 0.0000 -0.0000 -33.9872 -2.6372 2.4574 -45.2497 -16.0731 -14.6295 -11.5582 4.9995 51.9094 14.6184 -3.5238 -1.0958 -0.0000 0.0000 -0.0000 34.9456 5.2191 3.5806 41.5925 5.1701 -12.1351 12.2594 1.0615 24.9676 -11.3935 1.5180 -0.6579 0.0000 0.0000 0.0000 3.9018 2.6867 1.0794 0.9761 1.7926 4.5554 1.8555 -0.0701 -5.3733 0.0000 0.0000 -0.0000
